# xmcd
#
# Track frame offsets:
#	150
#	12873
#	36168
#	54836
#	76600
#	89164
#	114929
#	118422
#	130689
#	158358
#
# Disc length: 2277 seconds
#
# Revision: 1
# Processed by: cddbd v1.5.2PL0 Copyright (c) Steve Scherf et al.
# Submitted via: audiograbber 1.82.02
#
DISCID=6d08e30a
DTITLE=Silhoutte Brown - Two
DYEAR=2009
DGENRE=Electronic
TTITLE0=Bitter Pills and Butterflies
TTITLE1=Casualties Of Honey
TTITLE2=Constant Questions
TTITLE3=Fools Gold
TTITLE4=Get With It (feat. Sadat X)
TTITLE5=Hear Them Often Say
TTITLE6=Interlude
TTITLE7=Leave A Note
TTITLE8=Strawberries In Vinegar
TTITLE9=We Used To Run Steady
EXTD=
EXTT0=
EXTT1=
EXTT2=
EXTT3=
EXTT4=
EXTT5=
EXTT6=
EXTT7=
EXTT8=
EXTT9=
PLAYORDER=
